<svg xmlns="http://www.w3.org/2000/svg" width="1132" height="335" viewBox="0 0 1132 335" fill="none">
<rect width="1132" height="335" rx="16" fill="white"/>
<path d="M89.847 161.796C73.9923 164.438 57.7944 186.346 64.5927 202.296C69.1847 213.069 80.4351 219.548 91.5041 221.518C105.009 223.922 116.835 215.086 124.812 204.848C131.733 195.963 130.753 187.408 125.309 178.036C121.242 171.034 115.426 163.671 107.28 161.465C100.33 159.582 92.3907 161.551 86.8642 165.972" stroke="black" stroke-width="3" stroke-linecap="round"/>
<path d="M74.9331 217.872C74.9331 233.785 75.5296 249.69 75.5296 265.597" stroke="black" stroke-width="3" stroke-linecap="round"/>
<path d="M119.078 214.293C119.966 224.722 122.536 235.055 124.182 245.38C125.633 254.48 126.724 263.634 128.027 272.755" stroke="black" stroke-width="3" stroke-linecap="round"/>
<path d="M248.531 154.637C235.069 150.46 225.307 162.492 221.421 174.456C218.033 184.887 218.234 195.13 226.79 202.627C235.955 210.658 248.564 214.163 260.561 211.144C283.951 205.259 282.371 179.656 269.609 164.215C266.38 160.308 262.077 153.876 256.75 152.682C253.026 151.847 249.108 152.258 245.548 153.444" stroke="black" stroke-width="3" stroke-linecap="round"/>
<path d="M227.651 207.731C228.795 217.448 228.9 227.024 228.845 236.83C228.799 244.858 227.651 252.817 227.651 260.824" stroke="black" stroke-width="3" stroke-linecap="round"/>
<path d="M268.217 211.31C273.373 225.333 276.131 240.363 280.215 254.726C282.649 263.289 285.118 271.749 286.711 280.511" stroke="black" stroke-width="3" stroke-linecap="round"/>
<path d="M89.2504 146.286C89.6423 136.489 92.1598 125.15 98.729 117.618C103.946 111.636 110.666 107.089 117.885 103.93" stroke="black" stroke-width="3" stroke-linecap="round"/>
<path d="M125.489 92.7984H137.681V95.0384H125.489V92.7984ZM136.945 92.7984H137.361L137.809 92.7024L139.313 92.9584C138.321 106.078 134.129 112.478 126.961 115.71C126.609 115.102 126.001 114.206 125.489 113.694C132.049 111.198 136.081 104.862 136.945 93.2784V92.7984ZM127.025 103.774L128.529 102.046C132.305 104.67 137.137 108.382 139.313 110.942L137.649 112.926C135.505 110.302 130.833 106.43 127.025 103.774ZM142.321 110.142H152.337V112.414H142.321V110.142ZM141.009 89.6624H153.553V114.366H151.185V91.9664H143.313V114.846H141.009V89.6624ZM127.025 103.774C128.529 99.3904 130.289 91.8704 130.929 86.2384L133.297 86.4304C132.465 92.2864 130.673 99.8704 129.233 104.478L127.025 103.774ZM171.409 92.5744H173.873V112.542C173.873 114.046 173.521 114.782 172.497 115.166C171.441 115.55 169.777 115.614 167.025 115.614C166.897 114.942 166.545 113.886 166.161 113.182C168.209 113.246 170.097 113.246 170.641 113.214C171.217 113.182 171.409 113.054 171.409 112.51V92.5744ZM182.609 86.5904L183.985 88.7024C178.449 90.0784 169.361 90.7184 162.033 90.8144C162.001 90.1744 161.713 89.2144 161.457 88.6704C168.753 88.4784 177.713 87.8704 182.609 86.5904ZM163.569 104.19L165.873 104.99C164.081 108.062 161.425 111.422 159.217 113.662C158.769 113.214 157.777 112.446 157.233 112.094C159.505 110.11 162.001 107.038 163.569 104.19ZM178.161 105.182L180.209 104.254C182.545 106.75 185.393 110.238 186.737 112.382L184.497 113.534C183.249 111.358 180.465 107.774 178.161 105.182ZM160.145 101.886C159.985 101.342 159.601 100.222 159.313 99.5824C159.761 99.4544 160.017 98.6864 160.305 97.5344C160.561 96.4784 161.425 92.3504 161.457 88.6704L163.953 89.1824C163.761 93.0224 162.897 97.3744 162.065 100.35V100.414C162.065 100.414 160.145 101.31 160.145 101.886ZM160.145 101.886V99.9024L161.777 99.0384H185.585V101.47H163.889C161.777 101.47 160.433 101.598 160.145 101.886ZM203.601 91.5824H218.769V93.8864H202.481L203.601 91.5824ZM207.601 98.5264H218.033V100.734H207.601V98.5264ZM207.569 105.566H218.481V107.838H207.569V105.566ZM206.385 92.3184H208.849V115.646H206.385V92.3184ZM204.817 86.5904L207.153 87.1984C205.329 92.2864 202.545 97.3104 199.601 100.606C199.249 100.19 198.289 99.3264 197.745 98.9424C200.657 95.9664 203.249 91.2944 204.817 86.5904ZM197.137 86.3344L199.441 87.0704C197.329 92.4784 194.033 97.9504 190.545 101.534C190.321 100.958 189.585 99.6784 189.137 99.1024C192.337 95.9984 195.313 91.1984 197.137 86.3344ZM193.713 94.5904L196.081 92.1904L196.145 92.2224V115.614H193.713V94.5904Z" fill="black"/>
<path d="M220.945 99.3584L246.321 91.5824L246.929 93.6944L221.617 101.534L220.945 99.3584ZM245.585 92.0624H245.265L245.873 91.5824L246.385 91.1984L248.081 91.9664L247.953 92.4464C247.857 98.4624 247.601 102.366 246.897 104.254C246.321 105.886 245.393 106.494 244.337 106.654C243.313 106.814 241.681 106.846 240.529 106.814C240.497 106.206 240.209 105.15 239.921 104.574C241.073 104.67 242.545 104.67 243.121 104.67C243.857 104.67 244.369 104.446 244.817 103.198C245.361 101.598 245.553 97.8544 245.585 92.0624ZM235.857 86.2704H238.225V108.83H235.857V86.2704ZM226.833 88.4144H229.201V109.982C229.201 112.286 229.809 112.798 232.977 112.798C234.513 112.798 242.385 112.798 244.305 112.798C247.313 112.798 247.793 111.742 248.241 107.134C248.817 107.55 249.809 107.934 250.481 108.094C249.969 113.31 249.041 115.006 244.337 115.006C243.153 115.006 234.193 115.006 233.073 115.006C228.305 115.006 226.833 113.982 226.833 109.918V88.4144Z" fill="#FF0000"/>
<path d="M353.489 145.798H365.681V148.038H353.489V145.798ZM364.945 145.798H365.361L365.809 145.702L367.313 145.958C366.321 159.078 362.129 165.478 354.961 168.71C354.609 168.102 354.001 167.206 353.489 166.694C360.049 164.198 364.081 157.862 364.945 146.278V145.798ZM355.025 156.774L356.529 155.046C360.305 157.67 365.137 161.382 367.313 163.942L365.649 165.926C363.505 163.302 358.833 159.43 355.025 156.774ZM370.321 163.142H380.337V165.414H370.321V163.142ZM369.009 142.662H381.553V167.366H379.185V144.966H371.313V167.846H369.009V142.662ZM355.025 156.774C356.529 152.39 358.289 144.87 358.929 139.238L361.297 139.43C360.465 145.286 358.673 152.87 357.233 157.478L355.025 156.774ZM399.409 145.574H401.873V165.542C401.873 167.046 401.521 167.782 400.497 168.166C399.441 168.55 397.777 168.614 395.025 168.614C394.897 167.942 394.545 166.886 394.161 166.182C396.209 166.246 398.097 166.246 398.641 166.214C399.217 166.182 399.409 166.054 399.409 165.51V145.574ZM410.609 139.59L411.985 141.702C406.449 143.078 397.361 143.718 390.033 143.814C390.001 143.174 389.713 142.214 389.457 141.67C396.753 141.478 405.713 140.87 410.609 139.59ZM391.569 157.19L393.873 157.99C392.081 161.062 389.425 164.422 387.217 166.662C386.769 166.214 385.777 165.446 385.233 165.094C387.505 163.11 390.001 160.038 391.569 157.19ZM406.161 158.182L408.209 157.254C410.545 159.75 413.393 163.238 414.737 165.382L412.497 166.534C411.249 164.358 408.465 160.774 406.161 158.182ZM388.145 154.886C387.985 154.342 387.601 153.222 387.313 152.582C387.761 152.454 388.017 151.686 388.305 150.534C388.561 149.478 389.425 145.35 389.457 141.67L391.953 142.182C391.761 146.022 390.897 150.374 390.065 153.35V153.414C390.065 153.414 388.145 154.31 388.145 154.886ZM388.145 154.886V152.902L389.777 152.038H413.585V154.47H391.889C389.777 154.47 388.433 154.598 388.145 154.886ZM431.601 144.582H446.769V146.886H430.481L431.601 144.582ZM435.601 151.526H446.033V153.734H435.601V151.526ZM435.569 158.566H446.481V160.838H435.569V158.566ZM434.385 145.318H436.849V168.646H434.385V145.318ZM432.817 139.59L435.153 140.198C433.329 145.286 430.545 150.31 427.601 153.606C427.249 153.19 426.289 152.326 425.745 151.942C428.657 148.966 431.249 144.294 432.817 139.59ZM425.137 139.334L427.441 140.07C425.329 145.478 422.033 150.95 418.545 154.534C418.321 153.958 417.585 152.678 417.137 152.102C420.337 148.998 423.313 144.198 425.137 139.334ZM421.713 147.59L424.081 145.19L424.145 145.222V168.614H421.713V147.59Z" fill="black"/>
<path d="M455.345 158.278H475.793V160.198H455.345V158.278ZM456.241 154.054H475.793V155.942H456.241V154.054ZM451.057 141.094H477.201V143.046H451.057V141.094ZM464.145 145.414H474.929V147.238H464.145V145.414ZM449.969 149.798H478.033V151.75H449.969V149.798ZM474.929 158.278H477.297C477.297 158.278 477.265 158.918 477.233 159.238C476.849 164.742 476.433 166.95 475.665 167.782C475.153 168.358 474.577 168.55 473.745 168.614C473.009 168.678 471.537 168.678 470.033 168.582C470.001 167.974 469.745 167.078 469.457 166.502C470.833 166.63 472.177 166.63 472.689 166.63C473.201 166.662 473.457 166.598 473.713 166.342C474.257 165.798 474.641 163.814 474.929 158.598V158.278ZM462.577 162.214L464.369 161.734C465.137 163.206 465.937 165.19 466.193 166.406L464.273 167.046C464.017 165.766 463.313 163.75 462.577 162.214ZM467.537 161.734L469.201 161.03C470.161 162.182 471.249 163.782 471.665 164.838L469.937 165.638C469.553 164.55 468.529 162.918 467.537 161.734ZM457.329 162.406L459.217 162.086C459.793 163.75 460.209 165.958 460.337 167.366L458.289 167.75C458.225 166.31 457.841 164.102 457.329 162.406ZM452.753 161.606L454.705 162.374C454.129 164.262 453.329 166.758 452.241 168.326L450.225 167.366C451.345 165.894 452.241 163.43 452.753 161.606ZM462.769 141.862H465.137V150.854H462.769V141.862ZM455.089 144.486H457.329V150.726H455.089V144.486ZM455.537 151.078L457.905 151.302C457.457 154.182 456.721 157.926 456.209 160.198L453.777 160.23C454.385 157.83 455.089 153.958 455.537 151.078Z" fill="#008080"/>
<path d="M957.489 130.798H969.681V133.038H957.489V130.798ZM968.945 130.798H969.361L969.809 130.702L971.313 130.958C970.321 144.078 966.129 150.478 958.961 153.71C958.609 153.102 958.001 152.206 957.489 151.694C964.049 149.198 968.081 142.862 968.945 131.278V130.798ZM959.025 141.774L960.529 140.046C964.305 142.67 969.137 146.382 971.313 148.942L969.649 150.926C967.505 148.302 962.833 144.43 959.025 141.774ZM974.321 148.142H984.337V150.414H974.321V148.142ZM973.009 127.662H985.553V152.366H983.185V129.966H975.313V152.846H973.009V127.662ZM959.025 141.774C960.529 137.39 962.289 129.87 962.929 124.238L965.297 124.43C964.465 130.286 962.673 137.87 961.233 142.478L959.025 141.774ZM1003.41 130.574H1005.87V150.542C1005.87 152.046 1005.52 152.782 1004.5 153.166C1003.44 153.55 1001.78 153.614 999.025 153.614C998.897 152.942 998.545 151.886 998.161 151.182C1000.21 151.246 1002.1 151.246 1002.64 151.214C1003.22 151.182 1003.41 151.054 1003.41 150.51V130.574ZM1014.61 124.59L1015.98 126.702C1010.45 128.078 1001.36 128.718 994.033 128.814C994.001 128.174 993.713 127.214 993.457 126.67C1000.75 126.478 1009.71 125.87 1014.61 124.59ZM995.569 142.19L997.873 142.99C996.081 146.062 993.425 149.422 991.217 151.662C990.769 151.214 989.777 150.446 989.233 150.094C991.505 148.11 994.001 145.038 995.569 142.19ZM1010.16 143.182L1012.21 142.254C1014.54 144.75 1017.39 148.238 1018.74 150.382L1016.5 151.534C1015.25 149.358 1012.46 145.774 1010.16 143.182ZM992.145 139.886C991.985 139.342 991.601 138.222 991.313 137.582C991.761 137.454 992.017 136.686 992.305 135.534C992.561 134.478 993.425 130.35 993.457 126.67L995.953 127.182C995.761 131.022 994.897 135.374 994.065 138.35V138.414C994.065 138.414 992.145 139.31 992.145 139.886ZM992.145 139.886V137.902L993.777 137.038H1017.58V139.47H995.889C993.777 139.47 992.433 139.598 992.145 139.886ZM1035.6 129.582H1050.77V131.886H1034.48L1035.6 129.582ZM1039.6 136.526H1050.03V138.734H1039.6V136.526ZM1039.57 143.566H1050.48V145.838H1039.57V143.566ZM1038.38 130.318H1040.85V153.646H1038.38V130.318ZM1036.82 124.59L1039.15 125.198C1037.33 130.286 1034.54 135.31 1031.6 138.606C1031.25 138.19 1030.29 137.326 1029.74 136.942C1032.66 133.966 1035.25 129.294 1036.82 124.59ZM1029.14 124.334L1031.44 125.07C1029.33 130.478 1026.03 135.95 1022.54 139.534C1022.32 138.958 1021.58 137.678 1021.14 137.102C1024.34 133.998 1027.31 129.198 1029.14 124.334ZM1025.71 132.59L1028.08 130.19L1028.14 130.222V153.614H1025.71V132.59ZM1059.34 143.278H1079.79V145.198H1059.34V143.278ZM1060.24 139.054H1079.79V140.942H1060.24V139.054ZM1055.06 126.094H1081.2V128.046H1055.06V126.094ZM1068.14 130.414H1078.93V132.238H1068.14V130.414ZM1053.97 134.798H1082.03V136.75H1053.97V134.798ZM1078.93 143.278H1081.3C1081.3 143.278 1081.26 143.918 1081.23 144.238C1080.85 149.742 1080.43 151.95 1079.66 152.782C1079.15 153.358 1078.58 153.55 1077.74 153.614C1077.01 153.678 1075.54 153.678 1074.03 153.582C1074 152.974 1073.74 152.078 1073.46 151.502C1074.83 151.63 1076.18 151.63 1076.69 151.63C1077.2 151.662 1077.46 151.598 1077.71 151.342C1078.26 150.798 1078.64 148.814 1078.93 143.598V143.278ZM1066.58 147.214L1068.37 146.734C1069.14 148.206 1069.94 150.19 1070.19 151.406L1068.27 152.046C1068.02 150.766 1067.31 148.75 1066.58 147.214ZM1071.54 146.734L1073.2 146.03C1074.16 147.182 1075.25 148.782 1075.66 149.838L1073.94 150.638C1073.55 149.55 1072.53 147.918 1071.54 146.734ZM1061.33 147.406L1063.22 147.086C1063.79 148.75 1064.21 150.958 1064.34 152.366L1062.29 152.75C1062.22 151.31 1061.84 149.102 1061.33 147.406ZM1056.75 146.606L1058.7 147.374C1058.13 149.262 1057.33 151.758 1056.24 153.326L1054.22 152.366C1055.34 150.894 1056.24 148.43 1056.75 146.606ZM1066.77 126.862H1069.14V135.854H1066.77V126.862ZM1059.09 129.486H1061.33V135.726H1059.09V129.486ZM1059.54 136.078L1061.9 136.302C1061.46 139.182 1060.72 142.926 1060.21 145.198L1057.78 145.23C1058.38 142.83 1059.09 138.958 1059.54 136.078Z" fill="black"/>
<path d="M295.199 174.95C303.181 174.95 311.137 173.117 318.82 171.117C327.765 168.789 336.373 166.296 343.77 160.871" stroke="black" stroke-width="3" stroke-linecap="round"/>
<line x1="222.712" y1="86.3678" x2="253.712" y2="116.368" stroke="#FF0000" stroke-width="2"/>
<path d="M626.017 117.286C626.409 107.489 628.926 96.1504 635.495 88.6177C640.712 82.6358 647.432 78.0886 654.651 74.9301" stroke="black" stroke-width="3" stroke-linecap="round"/>
<path d="M662.255 63.7984H674.447V66.0384H662.255V63.7984ZM673.711 63.7984H674.127L674.575 63.7024L676.079 63.9584C675.087 77.0784 670.895 83.4784 663.727 86.7104C663.375 86.1024 662.767 85.2064 662.255 84.6944C668.815 82.1984 672.847 75.8624 673.711 64.2784V63.7984ZM663.791 74.7744L665.295 73.0464C669.071 75.6704 673.903 79.3824 676.079 81.9424L674.415 83.9264C672.271 81.3024 667.599 77.4304 663.791 74.7744ZM679.087 81.1424H689.103V83.4144H679.087V81.1424ZM677.775 60.6624H690.319V85.3664H687.951V62.9664H680.079V85.8464H677.775V60.6624ZM663.791 74.7744C665.295 70.3904 667.055 62.8704 667.695 57.2384L670.063 57.4304C669.231 63.2864 667.439 70.8704 665.999 75.4784L663.791 74.7744ZM708.175 63.5744H710.639V83.5424C710.639 85.0464 710.287 85.7824 709.263 86.1664C708.207 86.5504 706.543 86.6144 703.791 86.6144C703.663 85.9424 703.311 84.8864 702.927 84.1824C704.975 84.2464 706.863 84.2464 707.407 84.2144C707.983 84.1824 708.175 84.0544 708.175 83.5104V63.5744ZM719.375 57.5904L720.751 59.7024C715.215 61.0784 706.127 61.7184 698.799 61.8144C698.767 61.1744 698.479 60.2144 698.223 59.6704C705.519 59.4784 714.479 58.8704 719.375 57.5904ZM700.335 75.1904L702.639 75.9904C700.847 79.0624 698.191 82.4224 695.983 84.6624C695.535 84.2144 694.543 83.4464 693.999 83.0944C696.271 81.1104 698.767 78.0384 700.335 75.1904ZM714.927 76.1824L716.975 75.2544C719.311 77.7504 722.159 81.2384 723.503 83.3824L721.263 84.5344C720.015 82.3584 717.231 78.7744 714.927 76.1824ZM696.911 72.8864C696.751 72.3424 696.367 71.2224 696.079 70.5824C696.527 70.4544 696.783 69.6864 697.071 68.5344C697.327 67.4784 698.191 63.3504 698.223 59.6704L700.719 60.1824C700.527 64.0224 699.663 68.3744 698.831 71.3504V71.4144C698.831 71.4144 696.911 72.3104 696.911 72.8864ZM696.911 72.8864V70.9024L698.543 70.0384H722.351V72.4704H700.655C698.543 72.4704 697.199 72.5984 696.911 72.8864ZM740.367 62.5824H755.535V64.8864H739.247L740.367 62.5824ZM744.367 69.5264H754.799V71.7344H744.367V69.5264ZM744.335 76.5664H755.247V78.8384H744.335V76.5664ZM743.151 63.3184H745.615V86.6464H743.151V63.3184ZM741.583 57.5904L743.919 58.1984C742.095 63.2864 739.311 68.3104 736.367 71.6064C736.015 71.1904 735.055 70.3264 734.511 69.9424C737.423 66.9664 740.015 62.2944 741.583 57.5904ZM733.903 57.3344L736.207 58.0704C734.095 63.4784 730.799 68.9504 727.311 72.5344C727.087 71.9584 726.351 70.6784 725.903 70.1024C729.103 66.9984 732.079 62.1984 733.903 57.3344ZM730.479 65.5904L732.847 63.1904L732.911 63.2224V86.6144H730.479V65.5904Z" fill="black"/>
<path d="M757.711 70.3584L783.087 62.5824L783.695 64.6944L758.383 72.5344L757.711 70.3584ZM782.351 63.0624H782.031L782.639 62.5824L783.151 62.1984L784.847 62.9664L784.719 63.4464C784.623 69.4624 784.367 73.3664 783.663 75.2544C783.087 76.8864 782.159 77.4944 781.103 77.6544C780.079 77.8144 778.447 77.8464 777.295 77.8144C777.263 77.2064 776.975 76.1504 776.687 75.5744C777.839 75.6704 779.311 75.6704 779.887 75.6704C780.623 75.6704 781.135 75.4464 781.583 74.1984C782.127 72.5984 782.319 68.8544 782.351 63.0624ZM772.623 57.2704H774.991V79.8304H772.623V57.2704ZM763.599 59.4144H765.967V80.9824C765.967 83.2864 766.575 83.7984 769.743 83.7984C771.279 83.7984 779.151 83.7984 781.071 83.7984C784.079 83.7984 784.559 82.7424 785.007 78.1344C785.583 78.5504 786.575 78.9344 787.247 79.0944C786.735 84.3104 785.807 86.0064 781.103 86.0064C779.919 86.0064 770.959 86.0064 769.839 86.0064C765.071 86.0064 763.599 84.9824 763.599 80.9184V59.4144Z" fill="#FF0000"/>
<path d="M528.452 46C524.867 57.2019 524.33 67.2005 524.481 79.0544C524.857 108.634 526.362 138.218 528.686 167.706C531.871 208.122 535.879 248.497 540.015 288.827" stroke="black" stroke-width="3" stroke-linecap="round"/>
<path d="M596.611 186C595.926 206.54 593.004 226.918 592.523 247.495C592.511 248.003 590.873 268.717 593.457 264.84" stroke="black" stroke-width="3" stroke-linecap="round"/>
<path d="M649.056 193C649.056 218.745 648.074 246.887 654.312 271.84" stroke="black" stroke-width="3" stroke-linecap="round"/>
<path d="M804.918 124.84C804.918 134.303 801.848 206.834 808.071 206.834" stroke="black" stroke-width="3" stroke-linecap="round"/>
<path d="M809.122 131.147C833.764 122.933 863.316 126.942 888.838 126.942C891.576 126.942 909.744 124.51 912.373 129.162C914.51 132.942 914.842 137.678 915.06 141.893C915.741 155.037 915.252 168.217 915.936 181.371C916.568 193.525 915.944 208.986 920.549 220.499" stroke="black" stroke-width="3" stroke-linecap="round"/>
<path d="M805.969 214.192H921.601" stroke="black" stroke-width="3" stroke-linecap="round"/>
<path d="M854.324 223.653C851.483 230.171 848.017 239.635 848.017 246.779" stroke="black" stroke-width="3" stroke-linecap="round"/>
<path d="M869.041 222.602C873.839 229.168 873.614 242.119 880.604 246.779" stroke="black" stroke-width="3" stroke-linecap="round"/>
<path d="M854.628 250.821H880.296" stroke="black" stroke-width="3" stroke-linecap="round"/>
<path d="M826.059 151.041C836.025 151.041 845.994 151.159 855.943 150.769C858.456 150.671 860.986 150.753 863.502 150.753C866.199 150.753 869.279 151.081 871.893 150.241C872.856 149.931 874.21 150.177 875.192 150.177C879.153 150.177 883.114 150.177 887.075 150.177C890.4 150.177 893.65 149.888 896.972 149.888" stroke="black" stroke-width="3" stroke-linecap="round"/>
<path d="M839.608 169.778C839.817 171.452 864.855 168.941 867.409 168.914C871.522 168.87 875.589 169.202 879.676 169.202" stroke="black" stroke-width="3" stroke-linecap="round"/>
<path d="M833.554 185.633C833.234 190.557 833.323 195.231 836.149 199.47" stroke="black" stroke-width="3" stroke-linecap="round"/>
<path d="M834.419 185.633C841.145 185.184 847.882 185.395 854.629 185.345C858.565 185.315 862.41 184.628 866.32 184.496C870.991 184.337 875.648 185.257 880.317 185.345C881.034 185.358 883.119 185.708 883.728 185.2C884.625 184.453 885.418 190.425 885.442 190.565C886.057 194.169 887.171 198.107 887.171 201.776" stroke="black" stroke-width="3" stroke-linecap="round"/>
<path d="M834.707 202.64C843.983 201.031 853.602 201.93 862.973 201.471C868.175 201.217 873.467 200.461 878.651 200.334C881.298 200.27 889.242 200.334 886.595 200.334" stroke="black" stroke-width="3" stroke-linecap="round"/>
<path d="M842.779 186.498C839.978 188.658 837.764 191.596 835.796 194.505C834.93 195.786 834.098 197.07 833.843 198.605" stroke="black" stroke-width="3" stroke-linecap="round"/>
<path d="M855.75 187.651C849.042 192.558 842.703 197.741 836.725 203.505" stroke="black" stroke-width="3" stroke-linecap="round"/>
<path d="M870.74 187.074C865.606 189.579 860.035 194.334 856.615 198.893" stroke="black" stroke-width="3" stroke-linecap="round"/>
<path d="M878.235 187.362C876.144 190.884 873.651 194.305 871.028 197.452" stroke="black" stroke-width="3" stroke-linecap="round"/>
<path d="M886.018 191.11C884.679 194.2 882.026 196.876 880.253 199.758" stroke="black" stroke-width="3" stroke-linecap="round"/>
<path d="M903.026 171.508C907.211 171.447 911.264 170.635 915.309 169.554C921.497 167.902 928.878 165.915 933.742 161.451C935.275 160.043 936.46 158.317 937.201 156.39C937.496 155.622 937.91 155.073 938.482 154.501" stroke="black" stroke-width="3" stroke-linecap="round"/>
<path d="M932.428 152.194C934.899 152.194 937.324 152.052 939.763 151.618C940.824 151.429 943.073 150.325 943.094 152.098C943.142 156.159 941.094 159.747 940.788 163.725" stroke="black" stroke-width="3" stroke-linecap="round"/>
<path d="M668.73 155.35C667.73 152.97 667.184 150.502 666.706 147.961C665.6 142.076 665.125 136.265 666.228 130.345C666.459 129.104 666.803 126.46 667.969 125.47C668.606 124.928 669.541 125.021 669.84 125.84C670.618 127.966 670.582 130.623 670.569 132.815C670.534 139.036 669.794 145.26 668.578 151.356C668.205 153.229 667.741 155.073 667.251 156.917C667.154 157.281 667.263 157.061 667.359 156.917" stroke="black" stroke-width="3" stroke-linecap="round"/>
<path d="M668.143 164.164C667.6 164.198 667.858 163.968 668.143 163.968" stroke="black" stroke-width="3" stroke-linecap="round"/>
<path d="M667.555 129.888C668.545 133.735 667.947 138.219 667.947 142.151C667.947 143.507 667.947 144.864 667.947 146.22C667.947 147.523 667.947 143.616 667.947 142.314C667.947 137.454 667.947 132.593 667.947 127.733" stroke="black" stroke-width="3" stroke-linecap="round"/>
<path d="M666.398 165.95C666.398 167.62 669.252 167.286 668.861 166.065C668.125 163.763 666.506 166.262 667.945 166.982" stroke="black" stroke-width="3" stroke-linecap="round"/>
<path d="M630.069 136.279C612.217 132.911 593.254 138.329 588.041 157.712C584.817 169.698 592.549 182.869 601.75 190.086C611.207 197.503 627.278 203.147 638.887 197.68C648.596 193.108 657.248 183.223 655.878 172C654.728 162.583 649.965 152.134 643.842 144.904C635.153 134.643 623.71 136.279 611.533 136.279" stroke="black" stroke-width="3" stroke-linecap="round"/>
<path d="M89.9074 182.438V182.962" stroke="black" stroke-width="3" stroke-linecap="round"/>
<path d="M104.05 181.391V182.438" stroke="black" stroke-width="3" stroke-linecap="round"/>
<path d="M237.475 174.058H236.952" stroke="black" stroke-width="3" stroke-linecap="round"/>
<path d="M252 174.581H252.5" stroke="black" stroke-width="3" stroke-linecap="round"/>
<path d="M615.487 158.226H615.806" stroke="black" stroke-width="3" stroke-linecap="round"/>
<path d="M633.022 157.27H633.34" stroke="black" stroke-width="3" stroke-linecap="round"/>
</svg>