<svg width="58" height="58" viewBox="0 0 58 58" fill="none" xmlns="http://www.w3.org/2000/svg">
<g filter="url(#filter0_d_28_48)">
<circle cx="29" cy="29" r="21" fill="white"/>
</g>
<path d="M17 32.2991C17.092 32.2991 17.1841 32.2991 20.1765 30.6425C23.1689 28.986 29.0589 25.6728 32.2312 23.805C35.7513 21.7324 36.0561 21.0992 36.2416 21.0043C36.3566 20.9455 36.427 21.4617 36.4744 23.9751C36.5218 26.4886 36.5218 31.1362 36.5448 33.6224C36.5678 36.1087 36.6139 36.2927 36.4535 36.3875C36.2931 36.4824 35.925 36.4824 33.6417 35.309C31.3583 34.1356 27.1709 31.7887 24.9217 30.5108C21.4245 28.4463 19.3733 27.0505 18.7479 26.3317C18.3986 25.981 17.9845 25.6589 17.2789 25.0481" stroke="#24ACF2" stroke-width="2" stroke-linecap="round"/>
<path d="M22.4478 36.1151C22.4756 35.5262 23.313 32.7859 24.0228 31.1052C24.3996 30.2129 25.0376 29.722 25.2768 29.7211C25.8634 29.7191 26.1893 31.848 26.7276 34.0948C26.8417 34.571 26.9819 34.7902 27.1501 34.8895C27.9458 35.3593 28.388 32.5189 29.0082 31.0778C29.1941 30.646 29.4603 30.3988 29.6428 30.1736C29.7252 30.0719 29.8532 30.06 29.9943 30.1153C30.3027 30.3101 30.9213 31.3739 31.7925 33.4792C32.2175 34.6643 32.6079 36.0864 33.0946 37.5516" stroke="#006FB1" stroke-width="2" stroke-linecap="round"/>
<path d="M35.0115 29.9093C35.0666 30.2401 35.1217 30.5708 35.2604 31.5682C35.3991 32.5655 35.6196 34.2194 35.8159 35.3563C36.0122 36.4931 36.1776 37.0628 36.3087 37.4574C36.4398 37.8519 36.5317 38.054 36.6821 38.4294" stroke="#006FB1" stroke-width="2" stroke-linecap="round"/>
<path d="M35.0671 29.965C35.1774 29.965 35.5466 29.965 36.5529 30.066C37.2505 30.1361 38.3126 30.3693 39.1465 30.5653C40.562 30.898 41.3943 31.2998 41.8668 31.6974C42.3637 32.1156 42.4178 32.7471 42.3719 33.2374C42.3161 33.8331 41.974 34.3988 41.3651 35.1561C40.3032 36.4768 39.301 37.2588 39.0137 37.4627C38.8182 37.6297 38.6506 37.7606 38.4379 37.8717C38.317 37.9276 38.17 37.9828 37.9629 38.0396" stroke="#006FB1" stroke-width="2" stroke-linecap="round"/>
<defs>
<filter id="filter0_d_28_48" x="4" y="6" width="50" height="50" filterUnits="userSpaceOnUse" color-interpolation-filters="sRGB">
<feFlood flood-opacity="0" result="BackgroundImageFix"/>
<feColorMatrix in="SourceAlpha" type="matrix" values="0 0 0 0 0 0 0 0 0 0 0 0 0 0 0 0 0 0 127 0" result="hardAlpha"/>
<feOffset dy="2"/>
<feGaussianBlur stdDeviation="2"/>
<feComposite in2="hardAlpha" operator="out"/>
<feColorMatrix type="matrix" values="0 0 0 0 0 0 0 0 0 0 0 0 0 0 0 0 0 0 0.1 0"/>
<feBlend mode="normal" in2="BackgroundImageFix" result="effect1_dropShadow_28_48"/>
<feBlend mode="normal" in="SourceGraphic" in2="effect1_dropShadow_28_48" result="shape"/>
</filter>
</defs>
</svg>
